<?xml version="1.0" encoding="UTF-8" standalone="no"?>
<!-- Created with Inkscape (http://www.inkscape.org/) -->

<svg
   width="16"
   height="16"
   viewBox="0 0 4.2333333 4.2333333"
   version="1.1"
   id="svg5"
   inkscape:version="1.2.2 (732a01da63, 2022-12-09)"
   sodipodi:docname="WM.svg"
   xmlns:inkscape="http://www.inkscape.org/namespaces/inkscape"
   xmlns:sodipodi="http://sodipodi.sourceforge.net/DTD/sodipodi-0.dtd"
   xmlns="http://www.w3.org/2000/svg"
   xmlns:svg="http://www.w3.org/2000/svg">
  <sodipodi:namedview
     id="namedview7"
     pagecolor="#ffffff"
     bordercolor="#000000"
     borderopacity="0.25"
     inkscape:showpageshadow="2"
     inkscape:pageopacity="0.0"
     inkscape:pagecheckerboard="0"
     inkscape:deskcolor="#d1d1d1"
     inkscape:document-units="mm"
     showgrid="false"
     inkscape:zoom="58.553984"
     inkscape:cx="9.6321371"
     inkscape:cy="7.3265723"
     inkscape:window-width="2880"
     inkscape:window-height="1514"
     inkscape:window-x="-11"
     inkscape:window-y="-11"
     inkscape:window-maximized="1"
     inkscape:current-layer="layer1" />
  <defs
     id="defs2" />
  <g
     inkscape:label="Layer 1"
     inkscape:groupmode="layer"
     id="layer1"
     style="display:inline">
    <rect
       style="display:inline;fill:#d4d4d4;fill-opacity:1;stroke:none;stroke-width:0.356543;stroke-dasharray:none;stroke-opacity:1"
       id="rect9560"
       width="3.6160941"
       height="3.6160941"
       x="0.30861965"
       y="0.30861965"
       inkscape:label="rect9560"
       ry="0.80431473" />
    <path
       id="path2686"
       style="display:inline;fill:#94a2b8;fill-opacity:1;stroke:none;stroke-width:0.314314;stroke-dasharray:none;stroke-opacity:1"
       d="m 3.2762857,2.3504584 c -0.00968,-0.0051 -0.01942,-0.00963 -0.028939,-0.014469 -0.00952,-0.00484 -0.019059,-0.00989 -0.028422,-0.014469 -0.00936,-0.00457 -0.018179,-0.00912 -0.027388,-0.013436 -0.00921,-0.00432 -0.01833,-0.00834 -0.027388,-0.012402 -0.00906,-0.00407 -0.018479,-0.00807 -0.027389,-0.011886 -0.00891,-0.00382 -0.017592,-0.00728 -0.026355,-0.010852 -0.00876,-0.00357 -0.017219,-0.007 -0.025838,-0.010335 -0.00862,-0.00334 -0.01736,-0.00672 -0.025838,-0.00982 -0.00848,-0.0031 -0.016982,-0.00591 -0.025322,-0.00879 -0.00834,-0.00287 -0.016602,-0.00562 -0.024805,-0.00827 -0.0082,-0.00264 -0.016219,-0.00533 -0.024288,-0.00775 -0.00807,-0.00242 -0.016351,-0.00451 -0.024288,-0.00672 -0.00794,-0.00221 -0.015447,-0.00472 -0.023254,-0.00672 -0.00781,-0.00199 -0.015574,-0.0039 -0.023254,-0.00568 -0.00768,-0.00179 -0.015181,-0.00307 -0.022738,-0.00465 -0.00756,-0.00158 -0.015303,-0.00327 -0.022738,-0.00465 -0.00743,-0.00138 -0.014906,-0.00243 -0.022221,-0.00362 -0.00731,-0.00119 -0.014506,-0.00262 -0.021704,-0.00362 -0.0072,-9.962e-4 -0.014104,-0.00177 -0.021187,-0.00258 -0.00708,-8.1e-4 -0.014216,-0.00144 -0.021187,-0.00207 -0.00697,-6.283e-4 -0.013809,-0.0011 -0.020671,-0.00155 -0.00686,-4.509e-4 -0.013917,-7.556e-4 -0.020671,-0.00103 -0.00675,-2.779e-4 -0.013505,-4.074e-4 -0.020154,-5.167e-4 -0.00665,-1.094e-4 -0.013091,-5.716e-4 -0.019637,-5.168e-4 -0.00655,5.48e-5 -0.013191,3.022e-4 -0.019637,5.168e-4 -0.00645,2.146e-4 -0.012772,6.636e-4 -0.01912,0.00103 -0.00635,3.699e-4 -0.01235,5.127e-4 -0.018603,0.00103 -0.00625,5.209e-4 -0.012443,0.0014 -0.018604,0.00207 -0.00616,6.674e-4 -0.012533,0.00126 -0.018604,0.00207 -0.00607,8.095e-4 -0.012105,0.00164 -0.018087,0.00258 -0.00598,9.472e-4 -0.011673,0.00202 -0.01757,0.0031 -0.0059,0.00108 -0.011757,0.00241 -0.01757,0.00362 -0.00581,0.00121 -0.011837,0.00228 -0.01757,0.00362 -0.00573,0.00133 -0.011399,0.00268 -0.017053,0.00413 -0.00565,0.00145 -0.011475,0.00308 -0.017053,0.00465 -0.00558,0.00157 -0.011031,0.00349 -0.016537,0.00517 -0.011011,0.00336 -0.021824,0.00655 -0.032556,0.010335 -0.010732,0.00378 -0.02105,0.00772 -0.031523,0.011886 -0.010472,0.00416 -0.020773,0.00892 -0.031006,0.013436 -0.010232,0.00451 -0.020478,0.00913 -0.030489,0.013953 -0.010012,0.00483 -0.020162,0.00988 -0.029972,0.014986 -0.00981,0.0051 -0.01931,0.010157 -0.028939,0.015503 -0.00963,0.00535 -0.019472,0.010984 -0.028939,0.016536 -0.00947,0.00555 -0.018582,0.010812 -0.027905,0.016536 -0.00932,0.00572 -0.018705,0.011709 -0.027905,0.01757 -0.0092,0.00586 -0.018293,0.011607 -0.027389,0.01757 -0.018192,0.011926 -0.036368,0.024053 -0.05426,0.036174 -0.017892,0.01212 -0.035478,0.024141 -0.053227,0.036174 -0.017748,0.012032 -0.035467,0.023994 -0.053227,0.035657 -0.00888,0.00583 -0.01796,0.011884 -0.026872,0.01757 -0.00891,0.00569 -0.017908,0.011031 -0.026872,0.016536 -0.00896,0.00551 -0.017837,0.011247 -0.026872,0.016537 -0.00903,0.00529 -0.017747,0.010464 -0.026872,0.015503 -0.00912,0.00504 -0.018671,0.00972 -0.027905,0.014469 -0.00923,0.00475 -0.018542,0.00952 -0.027905,0.013953 -0.00936,0.00443 -0.01891,0.00833 -0.028422,0.012402 -0.00951,0.00407 -0.018742,0.0082 -0.028422,0.011886 -0.00968,0.00368 -0.019588,0.00708 -0.029456,0.010335 -0.00493,0.00163 -0.010002,0.00314 -0.014986,0.00465 -0.00498,0.00151 -0.00995,0.00325 -0.014986,0.00465 -0.00504,0.0014 -0.00989,0.00234 -0.014986,0.00362 -0.00509,0.00127 -0.010352,0.00247 -0.015503,0.00362 -0.00515,0.00115 -0.010292,0.0026 -0.015503,0.00362 -0.00521,0.00102 -0.01023,0.0017 -0.015503,0.00258 -0.00527,8.805e-4 -0.010681,0.00184 -0.01602,0.00258 -0.00534,7.407e-4 -0.010614,0.00147 -0.01602,0.00207 -0.00541,5.963e-4 -0.011061,0.0011 -0.016536,0.00155 -0.00548,4.476e-4 -0.010988,7.39e-4 -0.016536,0.00103 -0.00555,2.946e-4 -0.010913,3.797e-4 -0.016536,5.168e-4 -0.00562,1.37e-4 -0.011353,5.416e-4 -0.017053,5.167e-4 -0.0057,-2.48e-5 -0.01179,-3.255e-4 -0.01757,-5.167e-4 -0.00578,-1.912e-4 -0.011191,-6.716e-4 -0.017053,-0.00103 -0.00586,-3.619e-4 -0.01214,-4.966e-4 -0.018087,-0.00103 -0.00595,-5.37e-4 -0.011536,-0.00135 -0.01757,-0.00207 -0.00603,-7.166e-4 -0.012481,-0.00168 -0.018603,-0.00258 -0.00612,-9.005e-4 -0.012389,-0.00149 -0.018603,-0.00258 -0.00621,-0.00109 -0.012295,-0.00234 -0.018604,-0.00362 -0.00631,-0.00128 -0.012715,-0.00266 -0.01912,-0.00413 -0.00641,-0.00148 -0.012616,-0.00297 -0.01912,-0.00465 -0.0065,-0.00168 -0.013031,-0.0038 -0.019637,-0.00568 -0.00661,-0.00189 -0.013444,-0.00359 -0.020154,-0.00568 -0.00671,-0.0021 -0.013337,-0.00441 -0.020154,-0.00672 -0.00682,-0.00231 -0.013745,-0.0047 -0.02067,-0.00723 -0.00693,-0.00253 -0.014151,-0.005 -0.021187,-0.00775 -0.00704,-0.00275 -0.014037,-0.0058 -0.021187,-0.00878 -0.00715,-0.00298 -0.014438,-0.00609 -0.021704,-0.0093 -0.00727,-0.00321 -0.014319,-0.00637 -0.021704,-0.00982 -0.00738,-0.00345 -0.014715,-0.00716 -0.022221,-0.010852 -0.00751,-0.00369 -0.015108,-0.00743 -0.022738,-0.011369 -0.00763,-0.00394 -0.015499,-0.00821 -0.023254,-0.012402 -0.00776,-0.00419 -0.015371,-0.00848 -0.023254,-0.012919 -0.00788,-0.00444 -0.016274,-0.00925 -0.024288,-0.013953 -0.00801,-0.0047 -0.015624,-0.0095 -0.023771,-0.014469 -0.00815,-0.00496 -0.016522,-0.00975 -0.024805,-0.014986 -0.00828,-0.00523 -0.016901,-0.010515 -0.025321,-0.01602 -0.00842,-0.0055 -0.01676,-0.011272 -0.025322,-0.017053 -0.00856,-0.00578 -0.017134,-0.011508 -0.025838,-0.01757 -0.0087,-0.00606 -0.017506,-0.012256 -0.026355,-0.018604 -0.008849,-0.00635 -0.017875,-0.013 -0.0268717,-0.019637 -0.001564,-0.00115 -0.003083,-0.00246 -0.004651,-0.00362 A 1.159477,1.159477 0 0 0 2.1166666,3.5100776 1.159477,1.159477 0 0 0 3.2762857,2.3504584 Z" />
    <circle
       style="fill:none;fill-opacity:1;stroke:#fbfbfb;stroke-width:0.211667;stroke-dasharray:none;stroke-opacity:1"
       id="path1646"
       cx="2.1166666"
       cy="2.3397546"
       r="1.1703231" />
    <path
       style="fill:none;fill-opacity:1;stroke:#fbfbfb;stroke-width:0.211667;stroke-dasharray:none;stroke-opacity:1"
       d="m 0.94634342,2.3397545 c 1.17079298,0.8871793 1.10194648,-0.6529547 2.34064628,0"
       id="path1866"
       sodipodi:nodetypes="cc" />
    <rect
       style="display:inline;fill:#94a3b8;fill-opacity:1;stroke:#fbfbfb;stroke-width:0.0638727;stroke-dasharray:none;stroke-opacity:1"
       id="rect7920-4"
       width="0.55885905"
       height="0.35245255"
       x="2.7942765"
       y="0.67145795" />
    <rect
       style="display:inline;fill:#94a3b8;fill-opacity:1;stroke:#fbfbfb;stroke-width:0.0670561;stroke-dasharray:none;stroke-opacity:1"
       id="rect7920-4-5"
       width="1.0753075"
       height="0.20189045"
       x="1.5309982"
       y="0.74673897" />
    <circle
       style="fill:#94a3b8;fill-opacity:1;stroke:#fbfbfb;stroke-width:0.079375;stroke-dasharray:none;stroke-opacity:1"
       id="path7998"
       cx="1.0635979"
       cy="0.84051019"
       r="0.18340029" />
  </g>
  <g
     inkscape:groupmode="layer"
     id="layer2"
     inkscape:label="temp"
     style="display:none" />
</svg>
